<?xml version="1.0" encoding="utf-8"?>
<!-- Generator: Adobe Illustrator 23.0.3, SVG Export Plug-In . SVG Version: 6.00 Build 0)  -->
<svg version="1.1" id="Calque_1" xmlns="http://www.w3.org/2000/svg" xmlns:xlink="http://www.w3.org/1999/xlink" x="0px" y="0px"
	 viewBox="0 0 317.68 318.9" style="enable-background:new 0 0 317.68 318.9;" xml:space="preserve">
<style type="text/css">
	.st0{fill:#FFFFFF;}
	.st1{fill:#C17EB4;}
	.st2{fill:#CCCCCC;}
	.st3{fill:#33A936;}
	.st4{stroke:#000000;stroke-miterlimit:10;}
	.st5{fill:#020203;stroke:#000000;stroke-miterlimit:10;}
	.st6{fill:none;stroke:#000000;stroke-width:2;stroke-miterlimit:10;}
	.st7{fill:none;stroke:#33A936;stroke-width:4;stroke-miterlimit:10;}
	.st8{fill:none;stroke:#33A936;stroke-width:2;stroke-miterlimit:10;}
	.st9{fill:#5B3B8F;}
	.st10{fill:#F49739;}
	.st11{fill:#804A97;}
</style>
<ellipse transform="matrix(0.7071 -0.7071 0.7071 0.7071 -66.4974 159.3247)" class="st0" cx="159.07" cy="159.93" rx="147.94" ry="147.94"/>
<path class="st1" d="M215.26,52.9c0,1.7-1.33,3.08-2.97,3.08c-1.64,0-2.97-1.38-2.97-3.08c0-1.7,1.33-3.08,2.97-3.08
	C213.92,49.82,215.26,51.2,215.26,52.9"/>
<path class="st2" d="M158.57,164.63L158.57,164.63c-27.39,0-47.06-14.31-52.07-36.65h104.14
	C205.63,150.32,185.96,164.63,158.57,164.63"/>
<g>
	<path class="st3" d="M93.29,194.35c-1.8,1.75-3.99,3.78-6.56,6.08c-1.46,1.3-2.76,2.35-3.9,3.14c-1.19,0.87-2.43,1.3-3.73,1.3
		s-2.29-0.68-2.97-2.05c-0.36-0.73-0.55-1.51-0.55-2.36c0-2.87,1.16-6.44,3.49-10.7c2.07-3.8,4.93-7.5,8.58-11.07
		c3.62-3.58,6.19-5.37,7.69-5.37c0.36,0,0.68,0.14,0.96,0.41c0.25,0.27,0.38,0.6,0.38,0.99c0,0.64-0.23,1.16-0.68,1.57
		c-0.36,0.32-0.9,0.7-1.61,1.13c-1.28,0.8-2.86,2.12-4.75,3.96c-3.01,2.96-5.4,6.16-7.18,9.6c-1.96,3.81-2.94,6.49-2.94,8.07
		c0,0.34,0.1,0.65,0.31,0.92c0.27,0.39,0.64,0.58,1.09,0.58c0.87,0,2.35-0.83,4.44-2.5c2.51-1.94,4.53-3.75,6.08-5.43
		c4.51-4.88,7.9-8.83,10.15-11.86c2.16-2.94,3.99-5.29,5.47-7.04c1.25-1.48,2.22-2.22,2.91-2.22c0.46,0,0.84,0.23,1.16,0.68
		c0.25,0.36,0.38,0.79,0.38,1.26c0,0.8-0.43,1.75-1.3,2.87c-6.18,8.11-10.27,13.64-12.27,16.58c-3.03,4.51-5.66,9.19-7.9,14.05
		c-2.58,5.51-4.14,9.19-4.68,11.04c-0.52,1.71-1.01,2.79-1.47,3.25c-0.46,0.46-0.97,0.68-1.54,0.68c-1.07,0-1.61-0.51-1.61-1.54
		c0-1.12,0.72-3.39,2.15-6.84c1.69-4.08,3.75-8.13,6.19-12.17C91.16,197.98,92.56,195.63,93.29,194.35z"/>
	<path class="st3" d="M132.22,189.47c-2.05,2.42-6.32,8.02-12.82,16.82c-2.71,3.67-5.25,6.76-7.62,9.26c-2.67,2.8-4.9,4.2-6.7,4.2
		c-1.23,0-2.23-0.67-3.01-2.02c-0.52-0.93-0.79-2.05-0.79-3.35c0-4.15,1.82-9.82,5.47-17.02c3.55-6.95,8.19-13.72,13.91-20.3
		c2.37-2.73,4.02-4.1,4.96-4.1c0.3,0,0.59,0.13,0.89,0.38c0.41,0.34,0.62,0.76,0.62,1.26c0,0.66-0.55,1.54-1.64,2.63
		c-0.25,0.25-2.03,2.31-5.33,6.19c-4.24,4.97-7.96,10.76-11.18,17.36c-1.37,2.83-2.44,5.57-3.21,8.24
		c-0.55,1.82-0.82,3.27-0.82,4.34c0,0.46,0.1,0.87,0.31,1.23c0.27,0.43,0.65,0.65,1.13,0.65c0.89,0,2.16-0.95,3.83-2.84
		c4.19-4.81,11.04-13.43,20.54-25.87c2.39-3.14,5.09-6.43,8.1-9.84c0.82-0.93,1.47-1.61,1.95-2.02c0.48-0.43,1.04-0.65,1.67-0.65
		c0.43,0,0.81,0.17,1.13,0.51c0.3,0.3,0.44,0.64,0.44,1.03c0,0.57-0.51,1.62-1.54,3.14c-5.2,7.79-9.27,15.21-12.24,22.25
		c-2.94,6.97-4.48,12.15-4.61,15.52c-0.05,1.21-0.13,1.95-0.24,2.22c-0.18,0.41-0.51,0.62-0.99,0.62c-0.71,0-1.31-0.31-1.81-0.92
		c-0.36-0.48-0.55-1.05-0.55-1.71c0-1.53,0.4-3.8,1.2-6.84c0.98-3.76,2.57-7.93,4.79-12.51
		C128.19,197.08,129.58,194.46,132.22,189.47z"/>
	<path class="st3" d="M153.69,205.97c0.73-1.07,2.42-3.65,5.06-7.72c2.26-3.49,5.86-8.51,10.8-15.07c2.87-3.8,5.47-7,7.79-9.57
		c1.39-1.55,2.62-2.32,3.69-2.32c0.62,0,1.13,0.22,1.54,0.65c0.37,0.34,0.55,0.77,0.55,1.3c0,0.77-0.47,1.99-1.4,3.66
		c-0.18,0.34-1.12,1.99-2.8,4.96c-3.01,5.33-5.05,9.14-6.12,11.42c-2.94,6.24-5.09,11.56-6.46,15.96c-0.8,2.62-1.2,4.55-1.2,5.78
		c0,0.27,0.02,0.56,0.07,0.85c0.11,0.89,0.17,1.41,0.17,1.57c0,0.66-0.25,1.28-0.75,1.85c-0.43,0.52-0.92,0.79-1.47,0.79
		c-0.64,0-1.16-0.38-1.57-1.13c-0.34-0.57-0.51-1.37-0.51-2.39c0-6.45,5.38-19.12,16.13-38.01c-5.63,6.02-11.86,14.63-18.7,25.84
		c-1.5,2.44-2.75,4.09-3.73,4.96c-0.96,0.84-1.87,1.26-2.73,1.26c-0.87,0-1.5-0.38-1.91-1.13c-0.27-0.5-0.41-1.08-0.41-1.74
		c0-5.7,3.38-14.66,10.15-26.9c-2.3,2.35-4.51,5.07-6.63,8.17c-3.85,5.72-7.29,11.59-10.32,17.6c-1.44,2.89-3.18,6.76-5.23,11.59
		c-1.03,2.46-2.21,3.69-3.55,3.69c-0.34,0-0.63-0.15-0.85-0.44c-0.18-0.21-0.27-0.46-0.27-0.75c0-0.43,0.42-1.62,1.26-3.55
		c1.8-4.26,3.18-7.33,4.14-9.19c4.9-9.55,10.7-18.53,17.4-26.93c2.8-3.51,4.74-5.79,5.81-6.84c1.12-1.07,2.04-1.61,2.77-1.61
		c0.46,0,0.9,0.21,1.33,0.62c0.52,0.48,0.79,1.03,0.79,1.64c0,0.68-0.48,1.81-1.44,3.38c-2.73,4.47-5.25,9.48-7.55,15.04
		C155.54,198.24,154.26,202.49,153.69,205.97z"/>
	<path class="st3" d="M193.44,205.97c0.73-1.07,2.42-3.65,5.06-7.72c2.26-3.49,5.86-8.51,10.8-15.07c2.87-3.8,5.47-7,7.79-9.57
		c1.39-1.55,2.62-2.32,3.69-2.32c0.62,0,1.13,0.22,1.54,0.65c0.36,0.34,0.55,0.77,0.55,1.3c0,0.77-0.47,1.99-1.4,3.66
		c-0.18,0.34-1.12,1.99-2.8,4.96c-3.01,5.33-5.05,9.14-6.12,11.42c-2.94,6.24-5.09,11.56-6.46,15.96c-0.8,2.62-1.2,4.55-1.2,5.78
		c0,0.27,0.02,0.56,0.07,0.85c0.11,0.89,0.17,1.41,0.17,1.57c0,0.66-0.25,1.28-0.75,1.85c-0.43,0.52-0.92,0.79-1.47,0.79
		c-0.64,0-1.16-0.38-1.57-1.13c-0.34-0.57-0.51-1.37-0.51-2.39c0-6.45,5.38-19.12,16.13-38.01c-5.63,6.02-11.86,14.63-18.7,25.84
		c-1.5,2.44-2.75,4.09-3.73,4.96c-0.96,0.84-1.87,1.26-2.73,1.26c-0.87,0-1.5-0.38-1.91-1.13c-0.27-0.5-0.41-1.08-0.41-1.74
		c0-5.7,3.38-14.66,10.15-26.9c-2.3,2.35-4.51,5.07-6.63,8.17c-3.85,5.72-7.29,11.59-10.32,17.6c-1.44,2.89-3.18,6.76-5.23,11.59
		c-1.03,2.46-2.21,3.69-3.55,3.69c-0.34,0-0.63-0.15-0.85-0.44c-0.18-0.21-0.27-0.46-0.27-0.75c0-0.43,0.42-1.62,1.26-3.55
		c1.8-4.26,3.18-7.33,4.14-9.19c4.9-9.55,10.7-18.53,17.4-26.93c2.8-3.51,4.74-5.79,5.81-6.84c1.12-1.07,2.04-1.61,2.77-1.61
		c0.46,0,0.9,0.21,1.33,0.62c0.52,0.48,0.79,1.03,0.79,1.64c0,0.68-0.48,1.81-1.44,3.38c-2.73,4.47-5.25,9.48-7.55,15.04
		C195.29,198.24,194.01,202.49,193.44,205.97z"/>
	<path class="st3" d="M238.05,194.35c-1.8,1.75-3.99,3.78-6.56,6.08c-1.46,1.3-2.76,2.35-3.9,3.14c-1.19,0.87-2.43,1.3-3.73,1.3
		s-2.29-0.68-2.97-2.05c-0.37-0.73-0.55-1.51-0.55-2.36c0-2.87,1.16-6.44,3.49-10.7c2.07-3.8,4.93-7.5,8.58-11.07
		c3.62-3.58,6.19-5.37,7.69-5.37c0.36,0,0.68,0.14,0.96,0.41c0.25,0.27,0.38,0.6,0.38,0.99c0,0.64-0.23,1.16-0.68,1.57
		c-0.37,0.32-0.9,0.7-1.61,1.13c-1.28,0.8-2.86,2.12-4.75,3.96c-3.01,2.96-5.4,6.16-7.18,9.6c-1.96,3.81-2.94,6.49-2.94,8.07
		c0,0.34,0.1,0.65,0.31,0.92c0.27,0.39,0.64,0.58,1.09,0.58c0.87,0,2.35-0.83,4.44-2.5c2.51-1.94,4.53-3.75,6.08-5.43
		c4.51-4.88,7.9-8.83,10.15-11.86c2.16-2.94,3.99-5.29,5.47-7.04c1.25-1.48,2.22-2.22,2.91-2.22c0.46,0,0.84,0.23,1.16,0.68
		c0.25,0.36,0.38,0.79,0.38,1.26c0,0.8-0.43,1.75-1.3,2.87c-6.18,8.11-10.27,13.64-12.27,16.58c-3.03,4.51-5.66,9.19-7.9,14.05
		c-2.58,5.51-4.14,9.19-4.68,11.04c-0.52,1.71-1.01,2.79-1.47,3.25c-0.46,0.46-0.97,0.68-1.54,0.68c-1.07,0-1.61-0.51-1.61-1.54
		c0-1.12,0.72-3.39,2.15-6.84c1.69-4.08,3.75-8.13,6.19-12.17C235.91,197.98,237.32,195.63,238.05,194.35z"/>
</g>
<g>
	<path class="st4" d="M82.36,222.44c-1.34,0-2.11-0.74-2.11-2.04c0-1.19,0.72-3.49,2.19-7.03c1.69-4.08,3.78-8.2,6.22-12.23l0,0
		c0.94-1.55,1.73-2.86,2.39-3.95c-1.21,1.13-2.54,2.34-3.98,3.63c-1.46,1.3-2.79,2.37-3.94,3.18c-1.26,0.92-2.61,1.39-4.01,1.39
		c-1.5,0-2.65-0.78-3.42-2.33c-0.4-0.8-0.6-1.67-0.6-2.58c0-2.94,1.19-6.62,3.55-10.94c2.09-3.83,5.01-7.6,8.67-11.19
		c3.76-3.71,6.39-5.51,8.04-5.51c0.5,0,0.94,0.19,1.31,0.56c0.35,0.38,0.52,0.83,0.52,1.34c0,0.78-0.29,1.44-0.85,1.94
		c-0.39,0.34-0.94,0.73-1.68,1.18c-1.24,0.77-2.81,2.08-4.66,3.9c-2.95,2.91-5.34,6.1-7.08,9.48c-1.91,3.71-2.88,6.35-2.88,7.84
		c0,0.23,0.07,0.44,0.21,0.62c0.19,0.27,0.4,0.38,0.69,0.38c0.42,0,1.52-0.31,4.13-2.39c2.48-1.92,4.51-3.73,6.03-5.38
		c4.48-4.84,7.88-8.81,10.12-11.82c2.15-2.93,4-5.3,5.49-7.06c1.38-1.64,2.43-2.4,3.29-2.4c0.43,0,1.05,0.16,1.57,0.9
		c0.31,0.45,0.47,0.97,0.47,1.55c0,0.92-0.46,1.96-1.4,3.18c-6.15,8.08-10.27,13.65-12.25,16.55c-3,4.46-5.64,9.17-7.85,13.98
		c-2.55,5.47-4.12,9.16-4.66,10.97c-0.55,1.81-1.08,2.94-1.59,3.46C83.7,222.16,83.06,222.44,82.36,222.44z M89.52,201.65
		c-2.41,3.99-4.48,8.06-6.15,12.1c-1.4,3.37-2.11,5.6-2.11,6.64c0,0.75,0.31,1.04,1.11,1.04c0.44,0,0.82-0.18,1.18-0.54
		c0.27-0.27,0.73-1.02,1.34-3.04c0.56-1.88,2.1-5.52,4.71-11.11c2.23-4.85,4.9-9.6,7.93-14.12c1.99-2.92,6.13-8.51,12.29-16.6
		c0.79-1.03,1.2-1.89,1.2-2.57c0-0.38-0.09-0.7-0.29-0.98c-0.29-0.42-0.57-0.47-0.75-0.47c-0.24,0-0.96,0.2-2.52,2.04
		c-1.47,1.74-3.31,4.1-5.45,7.01c-2.26,3.04-5.69,7.04-10.19,11.9c-1.56,1.69-3.62,3.54-6.15,5.49c-3.6,2.86-5.29,3.17-6.25,1.81
		c-0.26-0.35-0.4-0.76-0.4-1.21c0-1.67,0.98-4.38,2.99-8.29c1.79-3.47,4.24-6.75,7.27-9.73c1.91-1.86,3.54-3.22,4.84-4.03
		c0.69-0.42,1.2-0.78,1.54-1.08c0.34-0.31,0.51-0.7,0.51-1.2c0-0.26-0.08-0.47-0.24-0.65c-0.17-0.17-0.36-0.25-0.59-0.25
		c-0.93,0-2.97,0.91-7.34,5.22c-3.59,3.52-6.45,7.21-8.49,10.96c-2.27,4.17-3.42,7.69-3.42,10.46c0,0.76,0.17,1.48,0.49,2.14
		c0.6,1.19,1.42,1.77,2.53,1.77c1.18,0,2.34-0.4,3.43-1.2c1.13-0.79,2.43-1.84,3.86-3.11c2.56-2.29,4.76-4.33,6.55-6.07l2.55-2.48
		l-1.76,3.09C93.01,195.86,91.63,198.17,89.52,201.65L89.52,201.65z"/>
</g>
<g>
	<path class="st4" d="M105.09,220.25c-1.42,0-2.57-0.76-3.44-2.27c-0.57-1.01-0.85-2.22-0.85-3.6c0-4.21,1.86-10.01,5.52-17.25
		c3.56-6.96,8.26-13.82,13.98-20.41c3.32-3.83,4.63-4.27,5.33-4.27c0.42,0,0.83,0.17,1.21,0.49c0.52,0.44,0.79,0.99,0.79,1.65
		c0,0.81-0.58,1.78-1.79,2.98c-0.17,0.17-1.22,1.37-5.31,6.16c-4.19,4.91-7.93,10.72-11.11,17.26c-1.35,2.79-2.42,5.54-3.18,8.16
		c-0.53,1.77-0.8,3.18-0.8,4.2c0,0.37,0.08,0.7,0.24,0.99c0.17,0.27,0.39,0.39,0.69,0.39c0.41,0,1.41-0.35,3.45-2.67
		c4.16-4.77,11.07-13.47,20.52-25.85c2.39-3.14,5.13-6.46,8.12-9.87c0.83-0.94,1.5-1.64,2-2.07c0.56-0.51,1.24-0.77,2-0.77
		c0.57,0,1.08,0.23,1.49,0.67c0.38,0.38,0.58,0.85,0.58,1.37c0,0.43-0.17,1.26-1.62,3.42c-5.15,7.73-9.25,15.19-12.19,22.17
		c-2.9,6.88-4.44,12.05-4.58,15.34c-0.06,1.68-0.18,2.16-0.28,2.39c-0.27,0.6-0.78,0.92-1.45,0.92c-0.86,0-1.6-0.37-2.2-1.11
		c-0.44-0.58-0.66-1.25-0.66-2.02c0-1.56,0.41-3.91,1.21-6.96c0.98-3.77,2.6-8.01,4.82-12.6l0.01-0.02
		c0.08-0.15,0.64-1.19,1.66-3.12c-2.32,3-5.48,7.21-9.46,12.61c-2.71,3.67-5.29,6.8-7.66,9.31
		C109.36,218.82,107.05,220.25,105.09,220.25z M125.63,173.46c-0.35,0-1.5,0.38-4.58,3.93c-5.67,6.52-10.32,13.32-13.84,20.2
		c-3.59,7.1-5.41,12.75-5.41,16.79c0,1.21,0.24,2.25,0.72,3.11c1.76,3.04,4.73,2.1,8.91-2.29c2.35-2.48,4.9-5.58,7.58-9.21
		c6.48-8.77,10.8-14.44,12.84-16.84l2.97-3.5l-2.31,4.36c-2.51,4.73-3.84,7.25-4.01,7.56c-2.19,4.53-3.78,8.71-4.75,12.41
		c-0.78,2.97-1.18,5.23-1.18,6.71c0,0.55,0.15,1.01,0.44,1.41c0.4,0.48,0.86,0.73,1.41,0.73c0.33,0,0.45-0.13,0.53-0.32
		c0.03-0.07,0.14-0.44,0.2-2.04c0.14-3.42,1.71-8.7,4.65-15.69c2.96-7.04,7.09-14.55,12.28-22.33c1.27-1.88,1.45-2.6,1.45-2.87
		c0-0.25-0.09-0.47-0.3-0.67c-0.24-0.25-0.48-0.37-0.77-0.37c-0.51,0-0.95,0.17-1.34,0.52c-0.47,0.4-1.11,1.07-1.91,1.97
		c-2.98,3.39-5.7,6.69-8.08,9.82c-9.47,12.4-16.39,21.11-20.56,25.9c-1.81,2.05-3.14,3.01-4.21,3.01c-0.65,0-1.19-0.3-1.55-0.88
		c-0.26-0.46-0.38-0.96-0.38-1.5c0-1.13,0.27-2.6,0.84-4.48c0.78-2.67,1.87-5.47,3.24-8.31c3.22-6.62,7-12.49,11.25-17.47
		c4.96-5.82,5.26-6.12,5.36-6.22c1.3-1.3,1.49-1.98,1.49-2.28c0-0.35-0.14-0.63-0.44-0.88C125.99,173.54,125.8,173.46,125.63,173.46
		z"/>
</g>
<g>
	<path class="st4" d="M134.14,222.37c-0.5,0-0.93-0.22-1.25-0.64c-0.24-0.27-0.38-0.64-0.38-1.06c0-0.35,0.15-1.09,1.31-3.75
		c1.79-4.24,3.19-7.35,4.15-9.22c4.89-9.53,10.76-18.62,17.45-27.02c2.85-3.56,4.76-5.81,5.85-6.88c2.05-1.97,3.48-2.24,4.79-1
		c0.62,0.57,0.94,1.24,0.94,2c0,0.79-0.49,1.98-1.51,3.64c-2.71,4.42-5.24,9.46-7.52,14.97c-1.51,3.83-2.62,7.24-3.3,10.17
		c0.89-1.36,2.11-3.23,3.65-5.61c2.25-3.48,5.89-8.56,10.82-15.1c2.87-3.8,5.5-7.03,7.82-9.6c1.5-1.67,2.83-2.49,4.06-2.49
		c0.76,0,1.4,0.27,1.9,0.81c0.45,0.42,0.68,0.98,0.68,1.64c0,0.87-0.48,2.15-1.47,3.9c-0.18,0.33-1.07,1.91-2.8,4.96
		c-2.99,5.3-5.04,9.13-6.1,11.38c-2.91,6.19-5.08,11.54-6.43,15.9c-0.78,2.56-1.17,4.45-1.17,5.63c0,0.25,0.02,0.51,0.06,0.78
		c0.16,1.23,0.18,1.53,0.18,1.65c0,0.78-0.29,1.51-0.88,2.18c-0.52,0.63-1.14,0.96-1.84,0.96c-0.83,0-1.51-0.47-2.01-1.39
		c-0.38-0.63-0.57-1.52-0.57-2.63c0-6.11,4.55-17.31,13.89-34.15c-4.77,5.68-9.97,13.13-15.53,22.24c-1.55,2.51-2.79,4.16-3.82,5.07
		c-1.05,0.92-2.08,1.39-3.07,1.39c-1.04,0-1.86-0.48-2.35-1.39c-0.31-0.57-0.47-1.24-0.47-1.98c0-5.17,2.77-13.06,8.25-23.5
		c-1.3,1.56-2.58,3.25-3.81,5.05c-3.82,5.67-7.28,11.57-10.29,17.54c-1.42,2.86-3.17,6.75-5.21,11.56
		C137.03,221.06,135.72,222.37,134.14,222.37z M164.39,173.05c-0.41,0-1.16,0.25-2.42,1.47c-1.04,1.02-2.99,3.31-5.77,6.79
		c-6.65,8.34-12.48,17.38-17.34,26.85c-0.95,1.85-2.33,4.93-4.12,9.16c-1.11,2.54-1.23,3.2-1.23,3.36c0,0.17,0.05,0.31,0.15,0.42
		c0.19,0.25,0.35,0.28,0.48,0.28c1.12,0,2.16-1.14,3.09-3.38c2.05-4.83,3.81-8.74,5.24-11.62c3.03-6.01,6.51-11.96,10.36-17.66
		c2.13-3.11,4.38-5.88,6.69-8.24l2.58-2.63l-1.78,3.22c-6.69,12.1-10.09,21.07-10.09,26.66c0,0.57,0.12,1.08,0.35,1.5
		c0.32,0.59,0.79,0.87,1.48,0.87c0.74,0,1.55-0.38,2.4-1.14c0.94-0.83,2.16-2.46,3.63-4.84c6.82-11.19,13.13-19.91,18.76-25.92
		l2.9-3.1l-2.1,3.69c-10.66,18.73-16.07,31.43-16.07,37.76c0,0.93,0.15,1.65,0.44,2.14c0.43,0.79,0.86,0.88,1.14,0.88
		c0.39,0,0.75-0.2,1.08-0.6c0.43-0.49,0.64-0.99,0.64-1.53c0-0.06-0.02-0.34-0.17-1.51c-0.05-0.31-0.07-0.62-0.07-0.92
		c0-1.29,0.4-3.23,1.22-5.92c1.37-4.4,3.55-9.8,6.49-16.03c1.07-2.27,3.13-6.13,6.14-11.45c1.71-3,2.62-4.62,2.8-4.95
		c1.11-1.98,1.34-2.95,1.34-3.42c0-0.38-0.13-0.69-0.39-0.93c-0.98-1.03-2.56-0.53-4.52,1.64c-2.3,2.55-4.92,5.76-7.77,9.54
		c-4.91,6.52-8.54,11.58-10.78,15.04c-2.62,4.05-4.33,6.65-5.06,7.73l-1.27,1.87l0.36-2.23c0.57-3.5,1.87-7.83,3.86-12.85l0-0.01
		c2.3-5.56,4.85-10.64,7.59-15.11c1.12-1.85,1.36-2.72,1.36-3.12c0-0.47-0.2-0.89-0.62-1.27
		C165.04,173.2,164.71,173.05,164.39,173.05z"/>
</g>
<g>
	<path class="st4" d="M173.89,222.37c-0.5,0-0.93-0.22-1.25-0.64c-0.24-0.27-0.38-0.63-0.38-1.06c0-0.35,0.15-1.09,1.31-3.75
		c1.79-4.24,3.19-7.35,4.15-9.22c4.89-9.53,10.76-18.62,17.45-27.02c2.85-3.57,4.76-5.82,5.85-6.88c2.06-1.97,3.49-2.24,4.79-1
		c0.62,0.57,0.94,1.24,0.94,2c0,0.79-0.49,1.98-1.51,3.64c-2.71,4.42-5.24,9.45-7.52,14.97c-1.51,3.83-2.62,7.24-3.3,10.17
		c0.9-1.37,2.12-3.24,3.65-5.61c2.25-3.48,5.89-8.56,10.82-15.1c2.87-3.8,5.5-7.03,7.82-9.6c1.5-1.67,2.83-2.49,4.06-2.49
		c0.76,0,1.4,0.27,1.9,0.81c0.45,0.42,0.68,0.98,0.68,1.64c0,0.87-0.48,2.15-1.47,3.9c-0.18,0.33-1.07,1.91-2.8,4.96
		c-2.99,5.3-5.04,9.13-6.1,11.38c-2.92,6.2-5.08,11.54-6.43,15.9c-0.78,2.56-1.17,4.46-1.17,5.63c0,0.25,0.02,0.51,0.06,0.78
		c0.16,1.23,0.18,1.53,0.18,1.65c0,0.78-0.29,1.51-0.88,2.18c-0.52,0.63-1.14,0.96-1.84,0.96c-0.83,0-1.51-0.47-2.01-1.39
		c-0.38-0.63-0.57-1.52-0.57-2.63c0-6.11,4.55-17.31,13.89-34.15c-4.77,5.68-9.97,13.14-15.53,22.25c-1.54,2.5-2.79,4.16-3.82,5.07
		c-1.05,0.92-2.08,1.39-3.07,1.39c-1.04,0-1.86-0.48-2.35-1.39c-0.31-0.58-0.47-1.24-0.47-1.98c0-5.17,2.77-13.06,8.25-23.5
		c-1.31,1.56-2.58,3.25-3.82,5.05c-3.82,5.66-7.28,11.57-10.29,17.54c-1.42,2.87-3.18,6.76-5.21,11.56
		C176.78,221.06,175.47,222.37,173.89,222.37z M204.14,173.05c-0.41,0-1.16,0.25-2.42,1.47c-1.04,1.02-2.98,3.3-5.77,6.79
		c-6.65,8.35-12.49,17.38-17.34,26.85c-0.95,1.85-2.34,4.94-4.12,9.16c-1.11,2.54-1.23,3.2-1.23,3.36c0,0.17,0.05,0.31,0.15,0.42
		c0.19,0.25,0.36,0.28,0.48,0.28c1.12,0,2.16-1.14,3.09-3.38c2.05-4.82,3.81-8.73,5.24-11.62c3.03-6.02,6.52-11.96,10.36-17.66
		c2.13-3.11,4.38-5.88,6.69-8.24l2.58-2.63l-1.78,3.22c-6.69,12.11-10.09,21.07-10.09,26.66c0,0.57,0.12,1.08,0.35,1.5
		c0.32,0.59,0.79,0.87,1.47,0.87c0.74,0,1.55-0.38,2.4-1.14c0.94-0.83,2.16-2.46,3.63-4.84c6.82-11.18,13.13-19.91,18.76-25.92
		l2.9-3.1l-2.1,3.69c-10.66,18.73-16.07,31.43-16.07,37.76c0,0.93,0.15,1.65,0.44,2.14c0.44,0.79,0.86,0.88,1.14,0.88
		c0.39,0,0.75-0.2,1.08-0.6c0.43-0.49,0.64-0.99,0.64-1.53c0-0.06-0.02-0.34-0.17-1.51c-0.05-0.31-0.07-0.63-0.07-0.92
		c0-1.29,0.4-3.23,1.22-5.92c1.37-4.4,3.55-9.79,6.49-16.03c1.07-2.27,3.13-6.13,6.13-11.45c1.71-3,2.62-4.62,2.8-4.95
		c1.11-1.98,1.34-2.95,1.34-3.42c0-0.38-0.13-0.69-0.39-0.93c-0.98-1.03-2.56-0.53-4.52,1.64c-2.3,2.55-4.92,5.76-7.77,9.54
		c-4.92,6.53-8.54,11.59-10.78,15.04c-2.61,4.03-4.31,6.63-5.06,7.73l-1.27,1.87l0.36-2.23c0.57-3.5,1.87-7.82,3.86-12.85l0-0.01
		c2.3-5.56,4.86-10.65,7.59-15.11c1.13-1.85,1.36-2.72,1.36-3.12c0-0.47-0.2-0.89-0.62-1.27
		C204.79,173.2,204.46,173.05,204.14,173.05z"/>
</g>
<g>
	<path class="st4" d="M227.11,222.44c-1.34,0-2.11-0.74-2.11-2.04c0-1.19,0.72-3.49,2.19-7.03c1.69-4.08,3.78-8.2,6.22-12.23v0
		c0.94-1.55,1.73-2.86,2.39-3.95c-1.21,1.13-2.54,2.34-3.98,3.63c-1.46,1.3-2.79,2.37-3.94,3.18c-1.26,0.92-2.61,1.39-4.01,1.39
		c-1.5,0-2.65-0.78-3.42-2.33c-0.4-0.8-0.6-1.67-0.6-2.58c0-2.94,1.19-6.62,3.55-10.94c2.09-3.83,5.01-7.6,8.67-11.19
		c3.76-3.71,6.39-5.51,8.04-5.51c0.5,0,0.94,0.19,1.31,0.56c0.35,0.38,0.52,0.83,0.52,1.34c0,0.78-0.29,1.44-0.85,1.94
		c-0.39,0.35-0.94,0.73-1.68,1.18c-1.24,0.77-2.81,2.08-4.66,3.9c-2.95,2.91-5.34,6.1-7.08,9.48c-1.91,3.71-2.88,6.35-2.88,7.84
		c0,0.23,0.07,0.44,0.21,0.62c0.19,0.27,0.4,0.38,0.69,0.38c0.42,0,1.52-0.31,4.13-2.39c2.48-1.92,4.51-3.73,6.03-5.38
		c4.48-4.84,7.88-8.82,10.12-11.82c2.16-2.93,4.01-5.31,5.49-7.06c1.38-1.64,2.43-2.4,3.29-2.4c0.43,0,1.05,0.16,1.57,0.9
		c0.31,0.45,0.47,0.97,0.47,1.55c0,0.92-0.46,1.96-1.41,3.18c-6.15,8.08-10.27,13.65-12.25,16.55c-3,4.46-5.64,9.17-7.86,13.98
		c-2.55,5.47-4.12,9.16-4.66,10.97c-0.56,1.81-1.08,2.94-1.59,3.46C228.45,222.16,227.81,222.44,227.11,222.44z M234.27,201.65
		c-2.41,4-4.48,8.07-6.15,12.1c-1.4,3.37-2.12,5.6-2.12,6.64c0,0.75,0.31,1.04,1.11,1.04c0.44,0,0.82-0.18,1.18-0.54
		c0.27-0.27,0.72-1.02,1.34-3.04c0.56-1.88,2.1-5.51,4.71-11.11c2.23-4.85,4.9-9.6,7.93-14.12c1.99-2.92,6.12-8.5,12.29-16.6
		c0.79-1.03,1.2-1.89,1.2-2.57c0-0.38-0.09-0.7-0.29-0.98c-0.29-0.42-0.57-0.47-0.75-0.47c-0.24,0-0.96,0.2-2.52,2.04
		c-1.47,1.74-3.3,4.1-5.45,7.01c-2.26,3.03-5.68,7.04-10.19,11.9c-1.56,1.69-3.62,3.54-6.15,5.49c-3.6,2.86-5.28,3.17-6.25,1.81
		c-0.26-0.35-0.4-0.76-0.4-1.21c0-1.67,0.98-4.38,2.99-8.29c1.79-3.47,4.24-6.75,7.27-9.73c1.91-1.86,3.54-3.22,4.84-4.03
		c0.68-0.42,1.2-0.78,1.54-1.08c0.34-0.31,0.51-0.7,0.51-1.2c0-0.26-0.08-0.47-0.25-0.65c-0.17-0.17-0.36-0.25-0.59-0.25
		c-0.93,0-2.97,0.91-7.34,5.22c-3.59,3.52-6.45,7.21-8.49,10.96c-2.27,4.17-3.43,7.69-3.43,10.46c0,0.76,0.17,1.48,0.5,2.14
		c0.6,1.19,1.42,1.77,2.53,1.77c1.18,0,2.34-0.4,3.43-1.2c1.13-0.79,2.42-1.84,3.86-3.12c2.56-2.29,4.76-4.33,6.54-6.07l2.55-2.48
		l-1.76,3.09C237.76,195.86,236.38,198.17,234.27,201.65L234.27,201.65z"/>
</g>
<g>
	<path class="st5" d="M136.94,52.63c-4.78,3.31-6.23,9.87-3.33,14.99L153.52,103c0.85,1.51,2.58,2.23,4.2,1.75
		c1.63-0.48,2.72-2.04,2.67-3.78l-1.36-40.98c-0.2-6.1-5.09-10.91-11.01-10.85c0.73-2.19,1.04-4.51,0.89-6.83
		c-0.66-7.53-6.72-12.98-6.98-13.19c-0.68-0.6-1.7-0.52-2.28,0.18c-0.3,0.36-0.44,0.84-0.37,1.32c0,0,0.78,5.65,1.37,12.48
		c0,0.57,0.1,1.17,0.14,1.67l-0.78-1.55c-2.99-6.11-5.22-11.28-5.24-11.33c-0.36-0.84-1.32-1.22-2.13-0.85
		c-0.43,0.2-0.75,0.57-0.89,1.03c-0.1,0.33-2.44,8.33,0.86,14.99C133.68,49.2,135.15,51.09,136.94,52.63 M152.65,54.02
		c1.95,1.41,3.14,3.68,3.23,6.13l0.11,3.6l-5.79,1.67c-0.87,0.21-1.41,1.1-1.21,2c0.2,0.9,1.07,1.46,1.94,1.25
		c0.06-0.01,0.11-0.03,0.16-0.05l4.99-1.48l1.13,33.95c0.01,0.26-0.19,0.47-0.44,0.48c-0.16,0-0.31-0.08-0.4-0.23l-8.08-14.54
		l4.22-1.25c0.87-0.21,1.41-1.1,1.21-2c-0.2-0.9-1.07-1.46-1.94-1.25c-0.05,0.01-0.11,0.03-0.16,0.05l-4.65,1.38
		c-0.11,0.04-0.21,0.1-0.31,0.17l-3.51-5.88l3.44-1.02c0.88-0.26,1.39-1.21,1.13-2.11c-0.25-0.91-1.17-1.43-2.05-1.17l-4.22,1.25
		l-4.17-7.43l3.05-0.9c0.87-0.21,1.41-1.1,1.21-2c-0.2-0.9-1.07-1.45-1.94-1.25c-0.06,0.01-0.11,0.03-0.16,0.05l-3.68,1.08
		c-1.38-4.12,0.73-8.62,4.73-10.05c0.13-0.05,0.27-0.09,0.41-0.13l5.08-1.5c0.69-0.21,1.41-0.32,2.13-0.32
		c1.63-0.01,3.21,0.53,4.52,1.52V54.02z M145.68,42.61c0.16,2.48-0.27,4.96-1.26,7.23c-0.14-2.42-0.34-4.8-0.53-7.08
		c-0.23-2.61-0.49-5-0.71-7.08C144.55,37.75,145.41,40.13,145.68,42.61 M137.08,44.7c1,2.05,2.07,4.16,3.23,6.3
		c-2.03-1.37-3.69-3.24-4.85-5.45c-1.03-2.26-1.51-4.74-1.41-7.23C134.9,40.22,135.98,42.43,137.08,44.7"/>
</g>
<g>
	<path class="st5" d="M118.76,64.89c1.98,4.11,4.25,8.06,6.79,11.83l1.1,1.67c0.55,0.73,1.56,0.86,2.27,0.3
		c0.65-0.52,0.82-1.47,0.38-2.19l-1.1-1.67c-2.25-3.32-4.27-6.79-6.06-10.39c1.36-2.12,6.8-11.31,4.44-20.16
		c-2.63-9.86-13.85-14.99-14.32-15.21c-0.72-0.29-1.54-0.02-1.96,0.65c-0.31,0.43-7.39,10.76-4.75,20.62
		C107.73,58.41,115.78,63.32,118.76,64.89 M112.19,32.75c2.8,1.53,9.52,5.81,11.31,12.41c1.62,5.96-1.24,12.46-3.02,15.69
		c-2.19-4.92-3.94-10.04-5.24-15.29l-0.47-1.92c-0.22-0.89-1.1-1.43-1.96-1.21c-0.87,0.23-1.39,1.13-1.17,2.02l0.44,1.9
		c1.11,4.46,2.53,8.82,4.27,13.06c-2.99-2.21-6.46-5.63-7.68-10.09C106.89,42.78,110.56,35.54,112.19,32.75"/>
</g>
<g>
	<path class="st5" d="M106.76,95.52c-1.42,2.18-4.28,2.76-6.39,1.31c-0.75-0.52-1.34-1.26-1.69-2.12c-0.34-0.85-1.28-1.26-2.11-0.91
		c-0.83,0.35-1.22,1.32-0.88,2.17c1.66,4.12,6.24,6.08,10.24,4.37c1.44-0.61,2.67-1.66,3.53-2.99c0.49-0.77,0.29-1.8-0.45-2.31
		c-0.75-0.51-1.75-0.3-2.25,0.47V95.52z"/>
</g>
<g>
	<path class="st5" d="M132.56,102.05c0,3.53,2.78,6.4,6.21,6.4c3.43,0,6.21-2.86,6.21-6.4c0-3.53-2.78-6.4-6.21-6.4
		C135.34,95.66,132.57,98.52,132.56,102.05 M141.74,102.05c0,1.69-1.33,3.07-2.97,3.07c-1.64,0-2.97-1.37-2.97-3.07
		c0-1.69,1.33-3.06,2.97-3.06C140.41,98.98,141.74,100.36,141.74,102.05"/>
</g>
<g>
	<path class="st5" d="M212.28,59.3c3.43,0,6.2-2.86,6.2-6.4c0-3.53-2.78-6.4-6.2-6.4c-3.43,0-6.21,2.86-6.21,6.4
		C206.09,56.44,208.86,59.3,212.28,59.3 M212.28,49.84c1.64,0,2.97,1.37,2.97,3.07c0,1.69-1.33,3.07-2.97,3.07
		c-1.64,0-2.98-1.37-2.98-3.07c-0.01-1.69,1.32-3.07,2.96-3.08h0.02V49.84z"/>
</g>
<g>
	<path class="st5" d="M166.61,48.23c3.43,0,6.21-2.86,6.21-6.4c0-3.53-2.78-6.4-6.21-6.4c-3.43,0-6.21,2.86-6.21,6.4
		C160.41,45.36,163.19,48.22,166.61,48.23 M166.61,38.77c1.64,0,2.97,1.37,2.97,3.07c0,1.69-1.33,3.07-2.97,3.07
		c-1.64,0-2.97-1.37-2.97-3.07C163.64,40.14,164.97,38.77,166.61,38.77"/>
</g>
<g>
	<path class="st5" d="M97.41,70.32c3.43,0,6.21-2.86,6.21-6.4c0-3.53-2.78-6.4-6.21-6.4c-3.43,0-6.21,2.86-6.21,6.4
		C91.21,67.45,93.98,70.31,97.41,70.32 M97.41,60.85c1.64,0,2.97,1.37,2.97,3.07c0,1.69-1.33,3.07-2.97,3.07
		c-1.64,0-2.97-1.37-2.97-3.07C94.43,62.23,95.76,60.85,97.41,60.85"/>
</g>
<g>
	<path class="st5" d="M119.1,131.58c-0.45-0.8-1.44-1.08-2.21-0.61c-0.78,0.46-1.04,1.48-0.6,2.28c0.51,0.92,1.04,1.82,1.62,2.7
		c0.5,0.77,1.5,0.98,2.25,0.47c0.74-0.51,0.95-1.55,0.45-2.32C120.08,133.27,119.58,132.44,119.1,131.58"/>
</g>
<g>
	<path class="st5" d="M137.99,149.64c-1.05-0.55-2.1-1.15-3.12-1.77c-1.02-0.62-2.41-1.57-3.54-2.4c-1.95-1.45-3.78-3.06-5.48-4.82
		l-0.61-0.62c-0.36-0.35-0.69-0.72-1-1.12c-0.58-0.7-1.6-0.79-2.28-0.2c-0.68,0.59-0.77,1.64-0.19,2.35
		c0.38,0.48,0.79,0.94,1.23,1.37l0.56,0.58c1.83,1.88,3.79,3.61,5.88,5.16c1.21,0.9,2.47,1.76,3.78,2.57
		c1.31,0.8,2.18,1.3,3.23,1.88c0.76,0.47,1.76,0.22,2.22-0.57c0.46-0.79,0.21-1.81-0.55-2.29c-0.07-0.04-0.14-0.08-0.21-0.11
		L137.99,149.64z"/>
</g>
<g>
	<path class="st5" d="M230.46,56.72c-1.87-1.61-4.65-1.36-6.22,0.56c-0.19,0.23-0.35,0.48-0.49,0.74l-4.69,8.8
		c-2.03-0.8-4.24-1-6.37-0.57c-2.36,0.57-4.51,1.83-6.17,3.65l-6.95,7.31c-7.26,7.62-15.59,14.07-24.71,19.12l-7.58,4.21
		c-5.07,2.74-9.13,7.11-11.57,12.44c-0.24,0.55-0.44,1.13-0.65,1.67h-26.59h0.1c0.7-0.37,1.04-1.21,0.81-1.98l-5.3-17.61
		c4.25-0.86,7.01-5.11,6.17-9.49c-0.84-4.38-4.96-7.23-9.21-6.36c-0.71,0.14-1.4,0.39-2.04,0.73c-0.13,0-0.23,0.17-0.35,0.23
		c-0.13-0.38-0.28-0.74-0.45-1.1c-2.46-5.08-8.45-7.13-13.38-4.6c-3.21,1.65-5.31,4.95-5.5,8.64c-5.35-1.4-10.78,1.93-12.14,7.44
		c-0.71,2.86-0.19,5.9,1.43,8.34c-2.54,5.06-0.61,11.28,4.3,13.89c4.91,2.61,10.94,0.63,13.48-4.43c0,0,0,0,0,0l4.59,6.3h-7.32
		c-0.89,0-1.62,0.75-1.62,1.67c0,30.4,23.26,51.64,56.56,51.64c33.31,0,56.57-21.24,56.57-51.64c0-0.92-0.72-1.67-1.62-1.67h-1.81
		l14.84-30.07c1.8-3.82,1.6-8.32-0.53-11.94l5.45-10.26C232.5,60.48,232.07,58.12,230.46,56.72 M107.1,103.9L107.1,103.9
		c-0.25-0.41-0.66-0.69-1.13-0.77c-0.88-0.12-1.69,0.52-1.81,1.43c-0.5,3.82-3.91,6.5-7.61,5.99c-3.71-0.51-6.31-4.03-5.81-7.85
		c0.14-1.09,0.53-2.13,1.14-3.04v-0.12c0.1-0.19,0.17-0.4,0.21-0.62c0.05-0.44-0.08-0.87-0.34-1.22c-2.44-2.93-2.11-7.33,0.72-9.84
		c2.14-1.9,5.2-2.22,7.68-0.82c0.26,0.14,0.56,0.2,0.86,0.18h0.34c0.87-0.2,1.42-1.09,1.23-1.98c-0.82-3.76,1.47-7.5,5.12-8.34
		c3.65-0.85,7.27,1.51,8.1,5.27c0.08,0.37,0.13,0.74,0.15,1.12c0.04,0.46,0.26,0.89,0.62,1.18c0.08,0.05,0.17,0.1,0.26,0.13
		l0.21,0.12c0.64,0.24,1.36,0.03,1.79-0.52c1.6-2.04,4.5-2.36,6.48-0.72c1.98,1.64,2.29,4.63,0.7,6.67
		c-0.37,0.47-0.81,0.86-1.32,1.16c-0.79,0.41-1.67,0.58-2.55,0.48c-0.89-0.1-1.68,0.57-1.78,1.48v0c-0.02,0.31,0.04,0.62,0.18,0.9
		l5.45,18.01l-3.1,1.67l-5.82-11.89c-0.4-0.82-1.38-1.15-2.17-0.74c-0.8,0.41-1.12,1.42-0.72,2.24l5.4,11.18h-4.57L107.1,103.9z
		 M158.61,164.63L158.61,164.63c-27.39,0-47.06-14.31-52.07-36.65h104.14C205.67,150.32,186,164.63,158.61,164.63 M211.3,124.65
		H105.92c-0.35-2.21-0.57-4.43-0.65-6.66h106.66C211.87,120.22,211.65,122.45,211.3,124.65 M158.61,114.66c0-0.1,0-0.22,0.11-0.32
		c2.16-4.64,5.72-8.43,10.15-10.81l7.51-4.21c9.42-5.23,18.02-11.9,25.5-19.77l2.33-2.45l2.75,0.27c1.44,0.19,2.67,1.15,3.23,2.53
		c0.92,2.27,2.87,3.94,5.2,4.45h0.26c1.22,0.31,2.24,1.18,2.75,2.36l1.62,3.63l-11.9,24.32H158.61z M228.67,60.79l-5.9,11.09
		c-0.01,0.08-0.01,0.16,0,0.23c-0.04,0.11-0.08,0.22-0.1,0.33c-0.02,0.21-0.02,0.42,0,0.63c0.03,0.12,0.07,0.23,0.13,0.33
		c0.03,0.08,0.06,0.15,0.1,0.22c1.95,2.76,2.27,6.4,0.84,9.48l-1.71,3.48l-0.57-1.26c-0.96-2.15-2.85-3.7-5.09-4.2h-0.26
		c-1.3-0.28-2.38-1.2-2.89-2.46c-1.02-2.48-3.24-4.21-5.83-4.55h-0.29l1.7-1.8c1.22-1.35,2.8-2.3,4.54-2.73
		c1.96-0.37,3.98-0.05,5.74,0.9c0.09,0.01,0.17,0.01,0.26,0c0.1,0.01,0.2,0.01,0.31,0c0.1,0.01,0.2,0.01,0.31,0
		c0.21,0,0.4-0.07,0.57-0.2c0.09-0.05,0.18-0.1,0.26-0.17c0.08-0.08,0.15-0.16,0.21-0.25c0.07-0.07,0.13-0.14,0.18-0.22l5.37-10
		c0.31-0.59,1.03-0.81,1.6-0.48c0.07,0.04,0.13,0.08,0.2,0.14C228.75,59.66,228.9,60.27,228.67,60.79"/>
</g>
<g>
	<path class="st5" d="M201.24,85.19c-2.47,2.25-5.09,4.38-7.77,6.38c-0.74,0.51-0.95,1.54-0.46,2.31c0.49,0.77,1.49,0.98,2.24,0.47
		c0.04-0.02,0.07-0.05,0.11-0.08c2.76-2.05,5.46-4.26,8.08-6.58c0.7-0.58,0.8-1.63,0.24-2.34c-0.56-0.72-1.58-0.83-2.27-0.25
		c-0.04,0.03-0.07,0.06-0.11,0.1H201.24z"/>
</g>
<g>
	<path class="st5" d="M182.17,98.85l-7.6,4.15c-3,1.66-5.67,3.87-7.89,6.53c-0.61,0.68-0.57,1.73,0.09,2.35
		c0.66,0.62,1.68,0.58,2.28-0.09c0.02-0.03,0.04-0.05,0.07-0.08c1.96-2.32,4.31-4.25,6.95-5.7l7.58-4.21
		c0.78-0.44,1.08-1.45,0.65-2.26c-0.42-0.81-1.4-1.11-2.19-0.67L182.17,98.85z"/>
</g>
<g>
	<path class="st5" d="M179.62,84.41c0.48,0.68,1.37,0.89,2.08,0.48c1.88-1.05,18.3-10.49,20.24-19.34c1.06-4.08,0.04-8.43-2.7-11.56
		c-1.46-1.6-3.21-2.89-5.15-3.8c3.07-0.85,5.81-2.68,7.81-5.23c3.59-5.26,2.18-12.53,2.13-12.83c-0.16-0.86-0.94-1.44-1.78-1.33
		c-1.2,0.15-2.38,0.41-3.52,0.78c-0.64-3.24-1.89-6.32-3.69-9.06c-0.48-0.69-1.38-0.9-2.1-0.48c-0.32,0.18-8.08,4.71-9.7,12.36
		c-1.16,5.31,0.94,10.56,2.41,13.33c-3.07-0.48-6.21-0.14-9.12,0.98c-3.79,1.63-6.52,5.14-7.24,9.31
		C167.37,66.85,178.29,82.64,179.62,84.41 M199.19,43.03L199.19,43.03c-1.91,2.27-4.52,3.81-7.39,4.35
		c-0.35-2.99,0.3-6.01,1.86-8.56c1.91-2.27,4.52-3.81,7.39-4.35C201.4,37.46,200.74,40.48,199.19,43.03 M186.41,35.13
		c0.99-4.5,4.85-7.81,6.84-9.31c1.21,2.19,2.03,4.58,2.43,7.06c-1.81,0.92-3.4,2.26-4.62,3.91c-1.8,2.77-2.69,6.06-2.54,9.39
		C187.3,43.81,185.49,39.4,186.41,35.13 M172.44,58.74c0.51-3.09,2.52-5.7,5.33-6.91c1.62-0.65,3.34-0.97,5.08-0.93
		c1.68,0.02,3.35,0.22,4.98,0.62c3.37,0.6,6.49,2.25,8.94,4.71c2.03,2.33,2.76,5.58,1.94,8.6c-1.31,5.76-12.01,13.19-17.39,16.42
		C177.81,75.98,171.2,64.5,172.44,58.74"/>
</g>
<g>
	<path class="st5" d="M181.58,70.6c-1.88-4.33-2.62-7.78-2.13-9.99c0.3-1.52,0.95-2.95,1.89-4.16c0.57-0.71,0.48-1.76-0.21-2.35
		c-0.69-0.59-1.71-0.49-2.28,0.22c-1.27,1.62-2.14,3.53-2.55,5.56c-0.65,2.95,0.14,7.01,2.34,12.08c0.37,0.84,1.32,1.22,2.14,0.84
		c0.82-0.38,1.18-1.36,0.82-2.21L181.58,70.6z"/>
</g>
<g>
	<path class="st3" d="M92.1,275.17c6.02-10.96,11.77-20.48,17.26-28.57c2.55-3.76,5.48-7.74,8.78-11.93c1.3-1.66,2.43-2.5,3.38-2.5
		c0.39,0,0.72,0.16,0.99,0.48c0.18,0.23,0.27,0.47,0.27,0.72c0,0.59-0.58,1.61-1.74,3.04c-7.54,9.43-16.08,22.68-25.6,39.75
		c-0.87,1.55-1.52,2.57-1.95,3.08c-0.46,0.57-1.03,0.85-1.71,0.85c-2.32,0-3.49-2.13-3.49-6.39c0-4.06,1.03-10.34,3.08-18.87
		c1.69-7.04,3.75-13.35,6.19-18.94c0.91-2.1,1.5-3.34,1.78-3.73c0.48-0.66,1.12-0.99,1.91-0.99c0.52,0,0.93,0.16,1.23,0.48
		c0.27,0.25,0.41,0.56,0.41,0.92c0,0.55-0.14,1.15-0.41,1.81l-1.3,3.08c-2.44,5.81-4.46,11.66-6.05,17.53
		c-2.07,7.59-3.11,13.66-3.11,18.22L92.1,275.17z"/>
	<path class="st3" d="M127.89,249.54l1.37-0.24c5.04-0.96,8.54-1.44,10.53-1.44c1.44,0,2.15,0.58,2.15,1.74
		c0,0.73-0.29,1.22-0.85,1.47c-0.39,0.18-1.05,0.3-1.98,0.34c-5.9,0.37-10.39,1.06-13.47,2.08c-1.21,1.8-2.97,5.16-5.3,10.08
		c-1.34,2.87-2.39,5.53-3.14,7.96c0.52-0.18,1.04-0.36,1.54-0.55c3.37-1.14,5.86-1.88,7.45-2.22c2.12-0.41,4.11-0.62,5.98-0.62
		c1.23,0,2.14,0.15,2.73,0.44c0.52,0.25,0.79,0.73,0.79,1.44c0,0.71-0.32,1.17-0.96,1.4c-0.3,0.09-1,0.15-2.12,0.17
		c-6.04,0.32-11.42,1.8-16.13,4.44c-0.62,0.34-1.14,0.51-1.57,0.51c-0.64,0-1.21-0.33-1.71-0.99c-0.43-0.55-0.65-1.1-0.65-1.67
		c0-0.57,0.72-2.67,2.15-6.29c2.16-5.49,5.12-11.51,8.85-18.05c1.12-1.98,3.24-5.32,6.36-10.01c0.71-1.09,1.39-2.16,2.05-3.21
		c-0.91-0.23-1.37-0.83-1.37-1.81c0-0.73,0.36-1.26,1.09-1.61c1.18-0.55,3.46-1.08,6.84-1.61c5.04-0.77,9.31-1.16,12.82-1.16
		c1.98,0,2.97,0.52,2.97,1.57c0,0.73-0.34,1.34-1.03,1.85c-0.34,0.25-0.89,0.38-1.64,0.38c-0.05,0-0.31-0.01-0.79-0.03
		c-0.34,0-0.72,0-1.13,0c-1.64,0-4.01,0.17-7.11,0.51c-2.69,0.3-5,0.73-6.94,1.3c0.23,0.34,0.34,0.62,0.34,0.82
		c0,0.39-0.54,1.28-1.61,2.67l-1.64,2.53C130.43,245.21,128.8,247.81,127.89,249.54z"/>
	<path class="st3" d="M156.19,269.64c-1.55,1.07-2.79,1.87-3.73,2.39c-2.14,1.23-4,1.85-5.57,1.85c-1.85,0-3.37-0.9-4.58-2.7
		c-0.87-1.3-1.3-2.79-1.3-4.48c0-4.69,2.05-10.16,6.15-16.41c3.81-5.76,8.21-10.73,13.23-14.9c4.1-3.42,7.62-5.13,10.56-5.13
		c1.48,0,2.69,0.63,3.62,1.88c0.71,0.96,1.06,2.08,1.06,3.38c0,3.96-1.94,8.08-5.81,12.34c-2.96,3.26-5.21,4.89-6.73,4.89
		c-0.34,0-0.68-0.14-1.03-0.41c-0.37-0.32-0.55-0.69-0.55-1.13c0-0.57,0.5-1.26,1.5-2.08c2.57-2.07,4.67-4.19,6.29-6.36
		c2.53-3.35,3.79-6,3.79-7.96c0-0.52-0.19-0.95-0.58-1.26c-0.37-0.3-0.81-0.44-1.33-0.44c-1.21,0-2.83,0.71-4.85,2.12
		c-4.24,2.99-8.42,7.17-12.54,12.54c-2.67,3.49-4.89,7.09-6.67,10.8c-1.55,3.26-2.32,5.92-2.32,8c0,0.82,0.26,1.6,0.79,2.32
		c0.71,0.98,1.63,1.47,2.77,1.47c1.62,0,3.61-0.85,5.98-2.56c2.96-2.14,5.08-3.86,6.36-5.16c1.07-1.09,1.88-1.64,2.43-1.64
		c0.39,0,0.71,0.15,0.96,0.44c0.32,0.39,0.48,0.87,0.48,1.44c0,0.64-0.39,1.48-1.16,2.53c-0.8,1.05-2.03,3-3.69,5.84
		c-1.91,3.26-3.68,6.79-5.3,10.6c-1.44,3.35-2.3,5.62-2.6,6.8c-0.25,1-0.54,1.72-0.85,2.15c-0.34,0.46-0.87,0.68-1.57,0.68
		c-0.59,0-1.05-0.21-1.37-0.62c-0.27-0.37-0.41-0.8-0.41-1.3c0-1.94,1.13-5.29,3.38-10.05c0.36-0.75,1.52-2.94,3.45-6.56
		C154.83,272.22,155.42,271.12,156.19,269.64z"/>
	<path class="st3" d="M184.15,269.64c-1.55,1.07-2.79,1.87-3.73,2.39c-2.14,1.23-4,1.85-5.57,1.85c-1.85,0-3.37-0.9-4.58-2.7
		c-0.87-1.3-1.3-2.79-1.3-4.48c0-4.69,2.05-10.16,6.15-16.41c3.8-5.76,8.21-10.73,13.23-14.9c4.1-3.42,7.62-5.13,10.56-5.13
		c1.48,0,2.69,0.63,3.62,1.88c0.71,0.96,1.06,2.08,1.06,3.38c0,3.96-1.94,8.08-5.81,12.34c-2.96,3.26-5.21,4.89-6.73,4.89
		c-0.34,0-0.68-0.14-1.03-0.41c-0.37-0.32-0.55-0.69-0.55-1.13c0-0.57,0.5-1.26,1.5-2.08c2.57-2.07,4.67-4.19,6.29-6.36
		c2.53-3.35,3.79-6,3.79-7.96c0-0.52-0.19-0.95-0.58-1.26c-0.37-0.3-0.81-0.44-1.33-0.44c-1.21,0-2.83,0.71-4.85,2.12
		c-4.24,2.99-8.42,7.17-12.54,12.54c-2.67,3.49-4.89,7.09-6.67,10.8c-1.55,3.26-2.32,5.92-2.32,8c0,0.82,0.26,1.6,0.79,2.32
		c0.71,0.98,1.63,1.47,2.77,1.47c1.62,0,3.61-0.85,5.98-2.56c2.96-2.14,5.08-3.86,6.36-5.16c1.07-1.09,1.88-1.64,2.43-1.64
		c0.39,0,0.71,0.15,0.96,0.44c0.32,0.39,0.48,0.87,0.48,1.44c0,0.64-0.39,1.48-1.16,2.53c-0.8,1.05-2.03,3-3.69,5.84
		c-1.91,3.26-3.68,6.79-5.3,10.6c-1.44,3.35-2.3,5.62-2.6,6.8c-0.25,1-0.54,1.72-0.85,2.15c-0.34,0.46-0.87,0.68-1.57,0.68
		c-0.59,0-1.05-0.21-1.37-0.62c-0.27-0.37-0.41-0.8-0.41-1.3c0-1.94,1.13-5.29,3.38-10.05c0.36-0.75,1.51-2.94,3.45-6.56
		C182.79,272.22,183.37,271.12,184.15,269.64z"/>
	<path class="st3" d="M220.65,231.25c0.36,0,0.72,0.19,1.06,0.58c0.3,0.34,0.44,0.72,0.44,1.13c0,0.57-0.31,1.34-0.92,2.32
		c-0.3,0.48-1.41,2.06-3.35,4.75c-9.07,12.49-14.9,23.75-17.5,33.8c-0.3,1.62-0.91,2.43-1.85,2.43c-0.5,0-0.95-0.24-1.33-0.72
		c-0.37-0.43-0.55-0.92-0.55-1.47c0-1.14,0.55-3.25,1.64-6.32c2.51-7.11,7-15.61,13.47-25.5c2.64-4.06,4.8-7.1,6.46-9.13
		C219.3,231.88,220.11,231.25,220.65,231.25z"/>
	<path class="st3" d="M227.18,249.54l1.37-0.24c5.04-0.96,8.54-1.44,10.53-1.44c1.44,0,2.15,0.58,2.15,1.74
		c0,0.73-0.29,1.22-0.85,1.47c-0.39,0.18-1.05,0.3-1.98,0.34c-5.9,0.37-10.39,1.06-13.47,2.08c-1.21,1.8-2.97,5.16-5.3,10.08
		c-1.34,2.87-2.39,5.53-3.14,7.96c0.52-0.18,1.04-0.36,1.54-0.55c3.37-1.14,5.86-1.88,7.45-2.22c2.12-0.41,4.11-0.62,5.98-0.62
		c1.23,0,2.14,0.15,2.73,0.44c0.52,0.25,0.79,0.73,0.79,1.44c0,0.71-0.32,1.17-0.96,1.4c-0.3,0.09-1,0.15-2.12,0.17
		c-6.04,0.32-11.42,1.8-16.13,4.44c-0.62,0.34-1.14,0.51-1.57,0.51c-0.64,0-1.21-0.33-1.71-0.99c-0.43-0.55-0.65-1.1-0.65-1.67
		c0-0.57,0.72-2.67,2.15-6.29c2.16-5.49,5.12-11.51,8.85-18.05c1.12-1.98,3.24-5.32,6.36-10.01c0.71-1.09,1.39-2.16,2.05-3.21
		c-0.91-0.23-1.37-0.83-1.37-1.81c0-0.73,0.36-1.26,1.09-1.61c1.18-0.55,3.46-1.08,6.84-1.61c5.04-0.77,9.31-1.16,12.82-1.16
		c1.98,0,2.97,0.52,2.97,1.57c0,0.73-0.34,1.34-1.03,1.85c-0.34,0.25-0.89,0.38-1.64,0.38c-0.05,0-0.31-0.01-0.79-0.03
		c-0.34,0-0.72,0-1.13,0c-1.64,0-4.01,0.17-7.11,0.51c-2.69,0.3-5,0.73-6.94,1.3c0.23,0.34,0.34,0.62,0.34,0.82
		c0,0.39-0.54,1.28-1.61,2.67l-1.64,2.53C229.72,245.21,228.09,247.81,227.18,249.54z"/>
</g>
<g>
	<path class="st6" d="M92.04,273.23c0-4.56,1.04-10.63,3.11-18.22c1.6-5.88,3.61-11.72,6.05-17.53l1.3-3.08
		c0.27-0.66,0.41-1.26,0.41-1.81c0-0.36-0.14-0.67-0.41-0.92c-0.3-0.32-0.71-0.48-1.23-0.48c-0.8,0-1.44,0.33-1.91,0.99
		c-0.27,0.39-0.87,1.63-1.78,3.73c-2.44,5.58-4.5,11.89-6.19,18.93c-2.05,8.52-3.08,14.81-3.08,18.87c0,4.26,1.16,6.39,3.49,6.39
		c0.68,0,1.25-0.29,1.71-0.85c0.43-0.5,1.08-1.53,1.95-3.08c9.52-17.07,18.06-30.32,25.6-39.75c1.16-1.43,1.74-2.45,1.74-3.04
		c0-0.25-0.09-0.49-0.27-0.72c-0.27-0.32-0.6-0.48-0.99-0.48c-0.96,0-2.09,0.83-3.38,2.49c-3.3,4.19-6.23,8.17-8.78,11.93
		c-5.49,8.09-11.24,17.61-17.26,28.57L92.04,273.23z"/>
	<path class="st6" d="M132.78,241.75l1.64-2.53c1.07-1.39,1.61-2.28,1.61-2.67c0-0.21-0.11-0.48-0.34-0.82
		c1.94-0.57,4.25-1,6.94-1.3c3.1-0.34,5.47-0.51,7.11-0.51h1.13c0.48,0.02,0.74,0.03,0.79,0.03c0.75,0,1.3-0.13,1.64-0.38
		c0.68-0.5,1.02-1.12,1.02-1.85c0-1.05-0.99-1.57-2.97-1.57c-3.51,0-7.78,0.39-12.82,1.16c-3.37,0.52-5.65,1.06-6.84,1.61
		c-0.73,0.34-1.09,0.88-1.09,1.61c0,0.98,0.46,1.58,1.37,1.81c-0.66,1.05-1.35,2.12-2.05,3.21c-3.12,4.69-5.24,8.03-6.36,10.01
		c-3.74,6.54-6.69,12.56-8.85,18.05c-1.44,3.62-2.15,5.72-2.15,6.29c0,0.57,0.22,1.13,0.65,1.67c0.5,0.66,1.07,0.99,1.71,0.99
		c0.43,0,0.96-0.17,1.57-0.51c4.72-2.64,10.09-4.12,16.13-4.44c1.12-0.02,1.82-0.08,2.12-0.17c0.64-0.23,0.96-0.7,0.96-1.4
		c0-0.71-0.26-1.18-0.79-1.44c-0.59-0.3-1.5-0.44-2.73-0.44c-1.87,0-3.86,0.2-5.98,0.61c-1.6,0.34-4.08,1.08-7.45,2.22
		c-0.5,0.18-1.01,0.36-1.54,0.55c0.75-2.44,1.8-5.09,3.15-7.96c2.32-4.92,4.09-8.28,5.3-10.08c3.08-1.03,7.57-1.72,13.47-2.09
		c0.93-0.05,1.6-0.16,1.98-0.34c0.57-0.25,0.85-0.74,0.85-1.47c0-1.16-0.72-1.74-2.15-1.74c-1.98,0-5.49,0.48-10.53,1.44l-1.37,0.24
		C128.8,247.81,130.43,245.21,132.78,241.75z"/>
	<path class="st6" d="M154.45,272.95c-1.94,3.62-3.09,5.81-3.45,6.56c-2.26,4.76-3.38,8.11-3.38,10.05c0,0.5,0.14,0.93,0.41,1.3
		c0.32,0.41,0.78,0.61,1.37,0.61c0.71,0,1.23-0.23,1.57-0.68c0.32-0.43,0.6-1.15,0.85-2.15c0.3-1.18,1.16-3.45,2.6-6.8
		c1.62-3.81,3.38-7.34,5.3-10.6c1.66-2.85,2.89-4.8,3.69-5.84c0.77-1.05,1.16-1.89,1.16-2.53c0-0.57-0.16-1.05-0.48-1.44
		c-0.25-0.29-0.57-0.44-0.96-0.44c-0.55,0-1.36,0.55-2.43,1.64c-1.28,1.3-3.4,3.02-6.36,5.16c-2.37,1.71-4.36,2.56-5.98,2.56
		c-1.14,0-2.06-0.49-2.77-1.47c-0.52-0.73-0.79-1.5-0.79-2.33c0-2.07,0.77-4.74,2.32-8c1.78-3.71,4-7.31,6.67-10.8
		c4.12-5.38,8.3-9.56,12.54-12.54c2.03-1.41,3.64-2.12,4.85-2.12c0.52,0,0.97,0.15,1.33,0.44c0.39,0.32,0.58,0.74,0.58,1.26
		c0,1.96-1.27,4.61-3.79,7.96c-1.62,2.17-3.71,4.29-6.29,6.36c-1,0.82-1.5,1.51-1.5,2.09c0,0.43,0.18,0.81,0.55,1.13
		c0.34,0.27,0.68,0.41,1.02,0.41c1.53,0,3.77-1.63,6.73-4.89c3.87-4.26,5.81-8.37,5.81-12.34c0-1.3-0.35-2.43-1.06-3.38
		c-0.93-1.25-2.14-1.88-3.62-1.88c-2.94,0-6.46,1.71-10.56,5.13c-5.01,4.17-9.42,9.14-13.23,14.9c-4.1,6.24-6.15,11.71-6.15,16.41
		c0,1.69,0.43,3.18,1.3,4.48c1.21,1.8,2.73,2.7,4.58,2.7c1.57,0,3.43-0.61,5.57-1.85c0.93-0.52,2.18-1.32,3.73-2.39
		C155.42,271.12,154.83,272.22,154.45,272.95z"/>
	<path class="st6" d="M182.41,272.95c-1.94,3.62-3.09,5.81-3.45,6.56c-2.26,4.76-3.38,8.11-3.38,10.05c0,0.5,0.14,0.93,0.41,1.3
		c0.32,0.41,0.78,0.61,1.37,0.61c0.71,0,1.23-0.23,1.57-0.68c0.32-0.43,0.6-1.15,0.85-2.15c0.3-1.18,1.16-3.45,2.6-6.8
		c1.62-3.81,3.38-7.34,5.3-10.6c1.66-2.85,2.89-4.8,3.69-5.84c0.77-1.05,1.16-1.89,1.16-2.53c0-0.57-0.16-1.05-0.48-1.44
		c-0.25-0.29-0.57-0.44-0.96-0.44c-0.55,0-1.36,0.55-2.43,1.64c-1.28,1.3-3.4,3.02-6.36,5.16c-2.37,1.71-4.36,2.56-5.98,2.56
		c-1.14,0-2.06-0.49-2.77-1.47c-0.52-0.73-0.79-1.5-0.79-2.33c0-2.07,0.77-4.74,2.32-8c1.78-3.71,4-7.31,6.67-10.8
		c4.12-5.38,8.3-9.56,12.54-12.54c2.03-1.41,3.64-2.12,4.85-2.12c0.52,0,0.97,0.15,1.33,0.44c0.39,0.32,0.58,0.74,0.58,1.26
		c0,1.96-1.27,4.61-3.79,7.96c-1.62,2.17-3.71,4.29-6.29,6.36c-1,0.82-1.5,1.51-1.5,2.09c0,0.43,0.18,0.81,0.55,1.13
		c0.34,0.27,0.68,0.41,1.02,0.41c1.53,0,3.77-1.63,6.73-4.89c3.87-4.26,5.81-8.37,5.81-12.34c0-1.3-0.35-2.43-1.06-3.38
		c-0.93-1.25-2.14-1.88-3.62-1.88c-2.94,0-6.46,1.71-10.56,5.13c-5.01,4.17-9.42,9.14-13.23,14.9c-4.1,6.24-6.15,11.71-6.15,16.41
		c0,1.69,0.43,3.18,1.3,4.48c1.21,1.8,2.73,2.7,4.58,2.7c1.57,0,3.43-0.61,5.57-1.85c0.93-0.52,2.18-1.32,3.73-2.39
		C183.37,271.12,182.79,272.22,182.41,272.95z"/>
	<path class="st6" d="M218.23,233.13c-1.66,2.03-3.82,5.07-6.46,9.13c-6.47,9.89-10.96,18.39-13.47,25.5
		c-1.09,3.08-1.64,5.18-1.64,6.32c0,0.55,0.18,1.04,0.55,1.47c0.39,0.48,0.83,0.72,1.33,0.72c0.93,0,1.55-0.81,1.85-2.43
		c2.6-10.05,8.43-21.32,17.5-33.8c1.94-2.69,3.05-4.27,3.35-4.75c0.61-0.98,0.92-1.75,0.92-2.32c0-0.41-0.15-0.79-0.45-1.13
		c-0.34-0.39-0.7-0.58-1.06-0.58C220.11,231.25,219.3,231.88,218.23,233.13z"/>
	<path class="st6" d="M232.07,241.75l1.64-2.53c1.07-1.39,1.61-2.28,1.61-2.67c0-0.21-0.11-0.48-0.34-0.82
		c1.94-0.57,4.25-1,6.94-1.3c3.1-0.34,5.47-0.51,7.11-0.51h1.13c0.48,0.02,0.74,0.03,0.79,0.03c0.75,0,1.3-0.13,1.64-0.38
		c0.68-0.5,1.02-1.12,1.02-1.85c0-1.05-0.99-1.57-2.97-1.57c-3.51,0-7.78,0.39-12.82,1.16c-3.37,0.52-5.65,1.06-6.84,1.61
		c-0.73,0.34-1.09,0.88-1.09,1.61c0,0.98,0.46,1.58,1.37,1.81c-0.66,1.05-1.35,2.12-2.05,3.21c-3.12,4.69-5.24,8.03-6.36,10.01
		c-3.74,6.54-6.69,12.56-8.85,18.05c-1.44,3.62-2.15,5.72-2.15,6.29c0,0.57,0.22,1.13,0.65,1.67c0.5,0.66,1.07,0.99,1.71,0.99
		c0.43,0,0.96-0.17,1.57-0.51c4.72-2.64,10.09-4.12,16.13-4.44c1.12-0.02,1.82-0.08,2.12-0.17c0.64-0.23,0.96-0.7,0.96-1.4
		c0-0.71-0.26-1.18-0.79-1.44c-0.59-0.3-1.5-0.44-2.73-0.44c-1.87,0-3.86,0.2-5.98,0.61c-1.6,0.34-4.08,1.08-7.45,2.22
		c-0.5,0.18-1.02,0.36-1.54,0.55c0.75-2.44,1.8-5.09,3.15-7.96c2.32-4.92,4.09-8.28,5.3-10.08c3.08-1.03,7.57-1.72,13.47-2.09
		c0.93-0.05,1.6-0.16,1.98-0.34c0.57-0.25,0.85-0.74,0.85-1.47c0-1.16-0.72-1.74-2.15-1.74c-1.98,0-5.49,0.48-10.53,1.44l-1.37,0.24
		C228.09,247.81,229.72,245.21,232.07,241.75z"/>
	
		<ellipse transform="matrix(1 -2.617789e-03 2.617789e-03 1 -0.4181 0.417)" class="st7" cx="159.08" cy="159.94" rx="154.32" ry="154.32"/>
	
		<ellipse transform="matrix(1.886776e-03 -1 1 1.886776e-03 -1.1566 318.7144)" class="st8" cx="159.08" cy="159.94" rx="148.96" ry="148.95"/>
</g>
<path class="st1" d="M141.74,102.05c0,1.69-1.33,3.07-2.97,3.07c-1.64,0-2.97-1.37-2.97-3.07c0-1.69,1.33-3.06,2.97-3.06
	C140.41,98.99,141.74,100.36,141.74,102.05"/>
<path class="st1" d="M100.38,63.92c0,1.69-1.33,3.07-2.97,3.07c-1.64,0-2.97-1.37-2.97-3.07c0-1.69,1.33-3.06,2.97-3.06
	C99.05,60.85,100.38,62.22,100.38,63.92"/>
<path class="st1" d="M169.58,41.83c0,1.69-1.33,3.07-2.97,3.07c-1.64,0-2.97-1.37-2.97-3.07c0-1.69,1.33-3.06,2.97-3.06
	C168.25,38.77,169.58,40.14,169.58,41.83"/>
<path class="st3" d="M228.67,60.78l-5.9,11.09c-0.01,0.08-0.01,0.16,0,0.23c-0.04,0.11-0.08,0.22-0.1,0.33
	c-0.02,0.21-0.02,0.42,0,0.63c0.03,0.12,0.07,0.23,0.13,0.33c0.03,0.08,0.06,0.15,0.1,0.22c1.95,2.76,2.27,6.4,0.84,9.48l-1.71,3.48
	l-0.57-1.26c-0.96-2.15-2.85-3.7-5.09-4.2h-0.26c-1.3-0.28-2.38-1.2-2.89-2.46c-1.02-2.48-3.24-4.21-5.83-4.55h-0.29l1.7-1.8
	c1.22-1.35,2.8-2.3,4.54-2.73c1.96-0.37,3.98-0.05,5.74,0.9c0.09,0.01,0.17,0.01,0.26,0c0.1,0.01,0.2,0.01,0.31,0
	c0.1,0.01,0.2,0.01,0.31,0c0.21,0,0.4-0.07,0.57-0.2c0.09-0.05,0.18-0.1,0.26-0.17c0.08-0.08,0.15-0.16,0.21-0.25
	c0.07-0.07,0.13-0.14,0.18-0.22l5.37-10c0.31-0.59,1.03-0.81,1.6-0.48c0.07,0.04,0.13,0.08,0.2,0.14
	C228.75,59.65,228.9,60.26,228.67,60.78"/>
<path class="st9" d="M158.61,114.65c0-0.1,0-0.22,0.11-0.32c2.16-4.64,5.72-8.43,10.15-10.81l7.51-4.21
	c9.42-5.23,18.02-11.9,25.5-19.77l2.33-2.45l2.75,0.27c1.44,0.19,2.67,1.15,3.23,2.53c0.92,2.27,2.87,3.94,5.2,4.45h0.26
	c1.22,0.31,2.24,1.18,2.75,2.36l1.62,3.63l-11.9,24.32H158.61z"/>
<path class="st1" d="M211.25,124.74H105.88c-0.35-2.21-0.57-4.43-0.65-6.66H211.9C211.82,120.31,211.61,122.53,211.25,124.74"/>
<path class="st3" d="M112.17,32.77c2.8,1.53,9.52,5.81,11.31,12.41c1.62,5.96-1.24,12.46-3.02,15.69
	c-2.19-4.92-3.94-10.04-5.24-15.29l-0.47-1.92c-0.22-0.89-1.1-1.43-1.96-1.21c-0.87,0.23-1.39,1.13-1.17,2.02l0.44,1.9
	c1.11,4.46,2.53,8.82,4.27,13.06c-2.99-2.21-6.46-5.63-7.68-10.09C106.87,42.8,110.54,35.56,112.17,32.77"/>
<path class="st10" d="M152.65,54c1.95,1.41,3.14,3.68,3.23,6.13l0.11,3.6l-5.79,1.67c-0.87,0.21-1.41,1.1-1.21,2
	c0.2,0.9,1.07,1.46,1.94,1.25c0.06-0.01,0.11-0.03,0.16-0.05l4.99-1.48l1.13,33.95c0.01,0.26-0.19,0.47-0.44,0.48
	c-0.16,0-0.31-0.08-0.4-0.23l-8.08-14.54l4.22-1.25c0.87-0.21,1.41-1.1,1.21-2c-0.2-0.9-1.07-1.46-1.94-1.25
	c-0.05,0.01-0.11,0.03-0.16,0.05l-4.65,1.38c-0.11,0.04-0.21,0.1-0.31,0.17l-3.51-5.88l3.44-1.02c0.88-0.26,1.39-1.21,1.13-2.11
	c-0.25-0.91-1.17-1.43-2.05-1.17l-4.22,1.25l-4.17-7.43l3.05-0.9c0.87-0.21,1.41-1.1,1.21-2c-0.2-0.9-1.07-1.45-1.94-1.25
	c-0.06,0.01-0.11,0.03-0.16,0.05l-3.68,1.08c-1.38-4.12,0.73-8.62,4.73-10.05c0.13-0.05,0.27-0.09,0.41-0.13l5.08-1.5
	c0.69-0.21,1.41-0.32,2.13-0.32c1.63-0.01,3.21,0.53,4.52,1.52V54z"/>
<path class="st3" d="M199.19,43.03L199.19,43.03c-1.91,2.27-4.52,3.81-7.39,4.35c-0.35-2.99,0.3-6.01,1.86-8.56
	c1.91-2.27,4.52-3.81,7.39-4.35C201.4,37.46,200.74,40.48,199.19,43.03"/>
<path class="st3" d="M186.41,35.13c0.99-4.5,4.85-7.81,6.84-9.31c1.21,2.19,2.03,4.58,2.43,7.06c-1.81,0.92-3.4,2.26-4.62,3.91
	c-1.8,2.77-2.69,6.06-2.54,9.39C187.29,43.81,185.48,39.39,186.41,35.13"/>
<path class="st3" d="M137.08,44.69c1,2.05,2.07,4.16,3.23,6.3c-2.03-1.37-3.69-3.24-4.85-5.45c-1.03-2.26-1.51-4.74-1.41-7.23
	C134.9,40.21,135.98,42.43,137.08,44.69"/>
<path class="st3" d="M145.68,42.62c0.16,2.48-0.27,4.96-1.26,7.23c-0.14-2.42-0.34-4.8-0.53-7.08c-0.23-2.61-0.49-5-0.71-7.08
	C144.55,37.75,145.41,40.13,145.68,42.62"/>
<path class="st11" d="M174.39,54.39c0,0,0.02-0.04,0.07-0.11c0.47-0.75,3.56-4.94,13.37-2.77c10.75,2.38,11.42,9.1,11.16,11.83
	c-0.19,1.92-0.63,3.02-1.54,4.31s-1.06-4.61-3.29-5.59c-2.44-1.06-2.78-4.16-5.49-5.45c-2.91-1.38-6.64-3.28-8.81-3.15"/>
</svg>
